<?xml version="1.0" encoding="UTF-8" standalone="no"?>
<svg
   xmlns:dc="http://purl.org/dc/elements/1.1/"
   xmlns:cc="http://creativecommons.org/ns#"
   xmlns:rdf="http://www.w3.org/1999/02/22-rdf-syntax-ns#"
   xmlns:svg="http://www.w3.org/2000/svg"
   xmlns="http://www.w3.org/2000/svg"
   xmlns:xlink="http://www.w3.org/1999/xlink"
   xmlns:sodipodi="http://sodipodi.sourceforge.net/DTD/sodipodi-0.dtd"
   xmlns:inkscape="http://www.inkscape.org/namespaces/inkscape"
   width="256px"
   height="256px"
   viewBox="0 0 256 256"
   version="1.1"
   preserveAspectRatio="xMidYMid"
   id="svg2"
   inkscape:version="0.91 r13725"
   sodipodi:docname="statom.svg"
   inkscape:export-filename="/Users/kieran/GitHub/statom/assets/statom.png"
   inkscape:export-xdpi="360"
   inkscape:export-ydpi="360">
  <metadata
     id="metadata30">
    <rdf:RDF>
      <cc:Work
         rdf:about="">
        <dc:format>image/svg+xml</dc:format>
        <dc:type
           rdf:resource="http://purl.org/dc/dcmitype/StillImage" />
      </cc:Work>
    </rdf:RDF>
  </metadata>
  <sodipodi:namedview
     pagecolor="#ffffff"
     bordercolor="#666666"
     borderopacity="1"
     objecttolerance="10"
     gridtolerance="10"
     guidetolerance="10"
     inkscape:pageopacity="0"
     inkscape:pageshadow="2"
     inkscape:window-width="1157"
     inkscape:window-height="792"
     id="namedview28"
     showgrid="false"
     inkscape:zoom="1.3037281"
     inkscape:cx="137.32583"
     inkscape:cy="107.99162"
     inkscape:window-x="190"
     inkscape:window-y="0"
     inkscape:window-maximized="0"
     inkscape:current-layer="svg2" />
  <defs
     id="defs4">
    <linearGradient
       x1="128"
       y1="10.271404"
       x2="128"
       y2="255.85778"
       id="linearGradient-1"
       gradientUnits="userSpaceOnUse"
       gradientTransform="translate(0.05565024,-0.04789784)">
      <stop
         stop-color="#FDFDFD"
         offset="0%"
         id="stop7" />
      <stop
         stop-color="#CBCBCB"
         offset="100%"
         id="stop9" />
    </linearGradient>
    <linearGradient
       x1="127.31541"
       y1="15.073441"
       x2="127.85778"
       y2="245.0489"
       id="linearGradient-2"
       gradientUnits="userSpaceOnUse"
       gradientTransform="translate(0,-9e-6)"
       xlink:href="#linearGradient-1">
      <stop
         stop-color="#B2E198"
         offset="0%"
         id="stop12"
         style="stop-color:#87aade;stop-opacity:1" />
      <stop
         stop-color="#04A171"
         offset="100%"
         id="stop14"
         style="stop-color:#0044aa;stop-opacity:1" />
    </linearGradient>
    <linearGradient
       x1="127.31541"
       y1="15.073441"
       x2="127.85778"
       y2="245.0489"
       id="linearGradient-2-8"
       gradientUnits="userSpaceOnUse"
       gradientTransform="translate(0.14221826,-0.14222734)"
       xlink:href="#linearGradient-1">
      <stop
         stop-color="#B2E198"
         offset="0%"
         id="stop12-4"
         style="stop-color:#87aade;stop-opacity:1" />
      <stop
         stop-color="#04A171"
         offset="100%"
         id="stop14-7"
         style="stop-color:#0044aa;stop-opacity:1" />
    </linearGradient>
    <linearGradient
       inkscape:collect="always"
       xlink:href="#linearGradient-1"
       id="linearGradient4547"
       gradientUnits="userSpaceOnUse"
       gradientTransform="translate(0,-9e-6)"
       x1="128"
       y1="10.271404"
       x2="128"
       y2="255.85778" />
    <linearGradient
       inkscape:collect="always"
       xlink:href="#linearGradient-2-8"
       id="linearGradient4603"
       gradientUnits="userSpaceOnUse"
       gradientTransform="matrix(0.71130864,0,0,0.71130864,35.946711,44.644804)"
       x1="127.31541"
       y1="15.073441"
       x2="127.85778"
       y2="245.0489" />
    <mask
       maskUnits="userSpaceOnUse"
       id="mask4599">
      <circle
         cx="126.89304"
         cy="135.79349"
         r="83.156723"
         id="circle4601"
         style="fill:url(#linearGradient4603)" />
    </mask>
  </defs>
  <g
     id="g4549"
     mask="url(#mask4599)"
     transform="matrix(1.3348391,0.35766905,-0.35766905,1.3348391,6.5298211,-96.816434)">
    <g
       transform="matrix(1.287631,0,0,1.287631,-33.269606,-33.642487)"
       id="layer1"
       style="display:inline;opacity:1;stroke:#99e8e8;stroke-opacity:0.38461543">
      <g
         id="g8191"
         style="stroke:#99e8e8;stroke-opacity:0.38461543">
        <path
           id="path1872"
           style="fill:none;fill-rule:evenodd;stroke:#99e8e8;stroke-width:1px;stroke-linecap:butt;stroke-linejoin:miter;stroke-opacity:0.38461543"
           d="m 20,0 0,400"
           inkscape:connector-curvature="0" />
        <use
           xlink:href="#path1872"
           height="400"
           width="400"
           y="0"
           x="0"
           id="use8185"
           style="stroke:#99e8e8;stroke-opacity:0.38461543"
           transform="translate(20,0)" />
        <use
           xlink:href="#path1872"
           height="400"
           width="400"
           y="0"
           x="0"
           id="use8187"
           style="stroke:#99e8e8;stroke-opacity:0.38461543"
           transform="translate(40,0)" />
        <use
           xlink:href="#path1872"
           height="400"
           width="400"
           y="0"
           x="0"
           id="use8189"
           style="stroke:#99e8e8;stroke-opacity:0.38461543"
           transform="translate(60,0)" />
      </g>
      <use
         style="stroke:#99e8e8;stroke-opacity:0.38461543"
         xlink:href="#g8191"
         height="400"
         width="400"
         y="0"
         x="0"
         id="use8197"
         transform="translate(100,0)" />
      <use
         style="stroke:#99e8e8;stroke-opacity:0.38461543"
         xlink:href="#g8191"
         height="400"
         width="400"
         y="0"
         x="0"
         id="use8199"
         transform="translate(200,0)" />
      <use
         style="stroke:#99e8e8;stroke-opacity:0.38461543"
         xlink:href="#g8191"
         height="400"
         width="400"
         y="0"
         x="0"
         id="use8201"
         transform="translate(300,0)" />
      <use
         style="stroke:#99e8e8;stroke-opacity:0.38461543"
         xlink:href="#g8191"
         height="400"
         width="400"
         y="0"
         x="0"
         id="use8203"
         transform="matrix(0,1,-1,0,400,0)" />
      <use
         style="stroke:#99e8e8;stroke-opacity:0.38461543"
         xlink:href="#use8203"
         height="400"
         width="400"
         y="0"
         x="0"
         id="use8205"
         transform="translate(0,100)" />
      <use
         style="stroke:#99e8e8;stroke-opacity:0.38461543"
         xlink:href="#use8203"
         height="400"
         width="400"
         y="0"
         x="0"
         id="use8207"
         transform="translate(0,200)" />
      <use
         style="stroke:#99e8e8;stroke-opacity:0.38461543"
         xlink:href="#use8203"
         height="400"
         width="400"
         y="0"
         x="0"
         id="use8209"
         transform="translate(0,300)" />
    </g>
    <g
       transform="matrix(1.287631,0,0,1.287631,-33.269606,-33.642487)"
       id="layer2"
       style="display:inline;fill:#afc6e9;stroke:#1e229d;stroke-opacity:1">
      <g
         id="g8225"
         style="fill:#afc6e9;stroke:#1e229d;stroke-opacity:1">
        <path
           id="path8215"
           style="fill:#afc6e9;fill-rule:evenodd;stroke:#1e229d;stroke-width:1px;stroke-linecap:butt;stroke-linejoin:miter;stroke-opacity:1"
           d="m 100,0 0,400"
           inkscape:connector-curvature="0" />
        <use
           xlink:href="#path8215"
           height="400"
           width="400"
           y="0"
           x="0"
           id="use8217"
           style="fill:#afc6e9;stroke:#1e229d;stroke-opacity:1"
           transform="translate(100,0)" />
        <use
           xlink:href="#path8215"
           height="400"
           width="400"
           y="0"
           x="0"
           id="use8219"
           style="fill:#afc6e9;stroke:#1e229d;stroke-opacity:1"
           transform="translate(200,0)" />
      </g>
      <use
         style="fill:#afc6e9;stroke:#1e229d;stroke-opacity:1"
         xlink:href="#g8225"
         height="400"
         width="400"
         y="0"
         x="0"
         id="use8232"
         transform="matrix(0,1,-1,0,400,0)" />
    </g>
    <g
       transform="matrix(1.287631,0,0,1.287631,-33.269606,-33.642487)"
       id="layer3">
      <rect
         id="rect10078"
         style="fill:none;stroke:#336666;stroke-opacity:1"
         y="0.5"
         x="0.5"
         height="399"
         width="399" />
    </g>
  </g>
  <g
     id="g4172">
    <g
       id="g4588">
      <circle
         style="fill:url(#linearGradient4547)"
         id="circle18"
         r="127.85778"
         cy="128"
         cx="128" />
      <circle
         style="fill:url(#linearGradient-2)"
         id="circle20"
         r="116.90667"
         cy="128.14221"
         cx="127.85779" />
    </g>
    <path
       sodipodi:nodetypes="ccccccccscccccccssccsccccccccccccccscsccccccccccscscccsccccsscsccscccccccscccccc"
       style="fill:#162d50"
       inkscape:connector-curvature="0"
       id="path24"
       d="m 100.45296,110.09673 c -1.37558,2.12025 -2.70479,4.2496 -3.98763,6.38208 -1.40317,-3.86247 -2.63509,-7.66635 -3.68441,-11.37721 3.7302,-0.53447 7.69508,-0.9563 11.87413,-1.24814 -1.41909,2.03435 -2.8214,4.11563 -4.20209,6.24327 l 0,0 z m 103.13784,7.47492 c -4.13212,-3.96658 -10.03946,-7.60121 -17.5579,-10.8032 -14.92565,-6.35648 -34.91811,-10.474672 -56.29497,-11.595952 -2.57792,-0.135111 -5.09468,-0.227555 -7.52867,-0.276764 16.32085,-19.480747 32.08306,-29.845903 41.26265,-30.194631 1.94389,-0.07424 3.57575,0.310329 4.85432,1.141191 4.29625,2.792106 5.48808,11.452302 3.18863,23.166009 -0.45369,2.312248 1.05244,4.554809 3.36469,5.008782 2.31253,0.452266 4.55452,-1.052445 5.00878,-3.364978 3.95293,-20.13696 -1.57667,-28.497067 -6.91143,-31.964729 -2.78442,-1.80992 -6.09337,-2.655289 -9.82898,-2.513351 -14.1201,0.536462 -33.90464,15.592391 -51.95719,38.803342 -7.14723,0.246614 -14.03761,0.863574 -20.48313,1.826134 -0.70741,-3.285049 -1.25411,-6.46912 -1.62446,-9.521209 -1.61906,-13.343858 0.36665,-22.815858 5.31143,-25.337743 0.79446,-0.405048 1.66258,-0.638293 2.65415,-0.712533 4.41828,-0.332515 10.65245,2.636516 17.54255,8.358685 1.81219,1.50528 4.50247,1.256391 6.00832,-0.556658 1.50528,-1.812765 1.2561,-4.502756 -0.55666,-6.008036 -8.84964,-7.349475 -16.80043,-10.816853 -23.63278,-10.303431 -2.11257,0.158436 -4.09487,0.703716 -5.89227,1.620196 -4.59321,2.3424 -7.73205,6.827804 -9.32949,13.331626 -1.36818,5.569423 -1.56217,12.512427 -0.57629,20.635591 0.38969,3.212516 0.95972,6.555876 1.69444,9.998223 -5.0395,1.062115 -9.71008,2.356056 -13.89654,3.868446 -18.31594,6.61646 -22.54449,15.33753 -22.86648,21.48864 -0.30777,5.87577 2.69994,14.62044 18.7756,22.91058 2.09437,1.08032 12.338051,4.47609 13.418081,2.38201 0.54002,-1.04718 2.905541,-12.2814 0.65559,-14.37617 -2.24995,-2.09478 -9.115371,4.94989 -10.162551,4.41001 -9.24758,-4.76928 -14.41053,-10.19249 -14.16505,-14.88014 0.34588,-6.6048 11.41646,-13.5953 30.27399,-17.53429 1.74677,6.30869 3.99047,12.86087 6.68074,19.50464 -6.77774,12.72291 -11.72309,25.26208 -14.28736,36.416 -1.83267,7.97013 -2.36828,14.88981 -1.59203,20.56703 0.90652,6.63069 3.55868,11.4176 7.88195,14.22792 2.20445,1.43274 5.17547,2.55345 9.07805,2.55345 5.65874,-2.8e-4 13.27502,-2.35747 23.3435,-9.53884 1.9183,-1.36818 2.36459,-4.03257 0.99613,-5.95115 -1.3679,-1.91829 -4.03257,-2.3643 -5.95115,-0.99612 -9.92484,7.07897 -18.45419,9.6128 -22.81614,6.77802 -4.65181,-3.02364 -5.63286,-12.64184 -2.624,-25.72856 1.99509,-8.67755 5.5552,-18.29604 10.38307,-28.20921 1.04818,2.24398 2.14215,4.48939 3.28306,6.73053 9.71691,19.08735 21.61209,35.69407 33.49447,46.76152 5.98386,5.57312 11.70717,9.49732 17.01092,11.66364 3.21763,1.31385 6.23929,1.97092 9.04448,1.97092 2.59641,-2.8e-4 5.00821,-0.5632 7.21635,-1.68932 4.43022,-2.25934 7.51104,-6.52088 9.15712,-12.66602 1.40942,-5.26251 1.72601,-11.8272 0.94151,-19.51204 -1.54282,-15.10997 -7.25248,-33.53855 -16.07708,-51.89119 -1.02087,-2.12395 -3.57063,-3.01711 -5.69429,-1.99652 -2.12367,1.02116 -3.01739,3.57063 -1.99624,5.69429 8.40733,17.4848 13.83368,34.90816 15.27837,49.06013 1.27061,12.44615 -0.78023,21.30943 -5.48608,23.70929 -4.94166,2.5199 -13.75574,-1.43815 -23.57902,-10.58759 -11.17042,-10.40412 -22.43044,-26.16832 -31.70617,-44.3884 -2.12053,-4.16569 -4.0741,-8.33991 -5.85159,-12.48285 2.20615,-3.94467 4.59178,-7.90272 7.14353,-11.83545 2.60182,-4.00981 5.23577,-7.78865 7.87684,-11.3334 0.70059,-0.01 1.40487,-0.0168 2.11513,-0.0191 3.66421,-0.0117 7.59154,0.0905 11.68782,0.30521 20.40434,1.07036 39.36825,4.95047 53.39847,10.92522 12.34062,5.25568 19.53479,11.70404 19.24466,17.24957 -0.24661,4.70841 -5.96765,9.57525 -15.69593,13.35239 -2.19676,0.85305 -3.28619,3.32516 -2.43342,5.52164 0.65593,1.68931 2.2693,2.72355 3.97881,2.72355 0.51313,0 1.03566,-0.0933 1.54282,-0.29042 16.90454,-6.56355 20.82077,-14.96689 21.12939,-20.86115 0.26965,-5.15129 -2.04003,-10.11143 -6.86507,-14.74333 l 0,0 0,0 z" />
    <path
       style="fill:#afc6e9"
       inkscape:connector-curvature="0"
       id="path26"
       d="m 119.19409,129.13269 c 0,5.15328 4.17393,9.33092 9.32266,9.33092 5.14902,0 9.32295,-4.17764 9.32295,-9.33092 0,-5.15328 -4.17393,-9.33091 -9.32295,-9.33091 -5.14873,0 -9.32266,4.17763 -9.32266,9.33091" />
  </g>
</svg>
